Coordinates
version=1
nRows=22
nColumns=18
inDegrees=yes

Units are S.I. units (second, meters, Newtons, ...)
If the header above contains a line with 'inDegrees', this indicates whether rotational values are in degrees (yes) or radians (no).

endheader
time	ground_thorax_rot_x	ground_thorax_rot_y	ground_thorax_rot_z	ground_thorax_tx	ground_thorax_ty	ground_thorax_tz	clav_prot	clav_elev	scapula_abduction	scapula_elevation	scapula_upward_rot	scapula_winging	plane_elv	shoulder_elv	axial_rot	elbow_flexion	pro_sup
      1.96000000	     -1.16101144	      0.33342561	     -7.55101027	     -0.00505167	      0.00651248	     -0.00541536	    -42.34986039	      7.66746429	    -21.41279830	     -3.36967940	     51.05439784	    -11.53769130	      0.59610511	     82.03419034	    -14.17993751	      0.00000000	     34.32000000
      1.97000000	     -1.33320377	      0.25541777	     -7.57877473	     -0.00523922	      0.00633646	     -0.00526176	    -42.39794356	      7.71167901	    -21.41781409	     -3.35038583	     51.16149935	    -11.58879212	      0.61854560	     82.17711317	    -14.17053491	      0.00000000	     34.32000000
      1.98000000	     -1.16694434	     -0.01122803	     -7.48600266	     -0.00541780	      0.00658443	     -0.00494029	    -42.36356184	      7.67976532	    -21.03745766	     -3.39535229	     51.56347477	    -11.59682053	      0.75812987	     82.80811346	    -14.12352470	      0.00000000	     34.32000000
      1.99000000	     -1.21578722	     -0.93716435	     -7.44546319	     -0.00522065	      0.00651897	     -0.00468293	    -41.66804943	      7.83248373	    -19.70354455	     -3.26269196	     51.96491291	    -11.28577491	      0.05876676	     83.35487779	    -14.07542155	      0.00000000	     34.32000000
      2.00000000	     -1.41663888	     -0.98523907	     -7.49206945	     -0.00525065	      0.00641743	     -0.00472166	    -41.71511856	      7.88760331	    -19.70509681	     -3.23585550	     52.07968389	    -11.33835478	      0.10292682	     83.49995034	    -14.06856501	      0.00000000	     34.32000000
      2.01000000	     -1.26453893	     -1.11963748	     -7.45921393	     -0.00527039	      0.00653557	     -0.00456005	    -41.73830900	      7.91204947	    -19.57589686	     -3.23418892	     52.29893930	    -11.37757856	      0.33564656	     84.03847291	    -14.07918591	      0.00000000	     34.32000000
      2.02000000	     -1.42034671	     -1.15623090	     -7.49007491	     -0.00524858	      0.00634368	     -0.00461220	    -41.77799161	      7.94904251	    -19.57576621	     -3.21769105	     52.39321876	    -11.41871527	      0.37532382	     84.16014423	    -14.07454863	      0.00000000	     34.32000000
      2.03000000	     -1.31729677	     -1.25807415	     -7.49002481	     -0.00523303	      0.00649515	     -0.00458356	    -41.82041667	      7.94574732	    -19.47612564	     -3.23527067	     52.60025610	    -11.45903332	      0.68123857	     84.68139108	    -14.10354948	      0.00000000	     34.32000000
      2.04000000	     -1.52111767	     -1.28740616	     -7.55540779	     -0.00528507	      0.00645520	     -0.00468224	    -41.85208294	      8.01223281	    -19.46057133	     -3.19892312	     52.71151267	    -11.50557775	      0.74616431	     84.81922682	    -14.09897229	      0.00000000	     34.32000000
      2.05000000	     -1.35698350	     -1.59284899	     -7.41079479	     -0.00541126	      0.00656844	     -0.00437986	    -41.71605989	      8.38715278	    -19.18887376	     -2.94765415	     52.95716837	    -11.55724814	      1.00178607	     85.28924138	    -14.14561119	      0.00000000	     34.32000000
      2.06000000	     -1.57663536	     -1.62475516	     -7.47830400	     -0.00544815	      0.00655188	     -0.00437094	    -41.75510882	      8.45803439	    -19.17690391	     -2.90950741	     53.08056060	    -11.60933914	      1.05686202	     85.43761234	    -14.13947855	      0.00000000	     34.32000000
      2.07000000	     -1.40423733	     -1.65474048	     -7.42322626	     -0.00545061	      0.00663562	     -0.00435203	    -41.75693253	      8.78792865	    -18.94488038	     -2.70995157	     53.52575122	    -11.73698511	      1.10616980	     85.94705773	    -14.18752590	      0.00000000	     34.32000000
      2.08000000	     -1.63783525	     -1.64226976	     -7.51086719	     -0.00538374	      0.00650510	     -0.00447099	    -41.77917382	      8.86745899	    -18.89663146	     -2.66515492	     53.66599300	    -11.78204338	      1.19233558	     86.10021488	    -14.18425570	      0.00000000	     34.32000000
      2.09000000	     -1.46827222	     -1.92722822	     -7.42846473	     -0.00542703	      0.00655685	     -0.00433277	    -41.53251441	      9.07983869	    -18.24378297	     -2.52394249	     54.09886826	    -11.73248920	      1.08017983	     86.64776737	    -14.30126898	      0.00000000	     34.32000000
      2.10000000	     -1.47260213	     -2.26013780	     -7.41310708	     -0.00555614	      0.00655689	     -0.00406662	    -41.24584914	      9.02498368	    -17.70082643	     -2.54299280	     54.19067875	    -11.56484227	      1.06228506	     87.15882827	    -14.22406981	      0.00000000	     34.32000000
      2.11000000	     -1.43966917	     -2.31307307	     -7.36912004	     -0.00584317	      0.00655844	     -0.00381837	    -41.25517702	      8.93426499	    -17.53139881	     -2.61424206	     54.37863864	    -11.55936288	      1.26318569	     87.49097457	    -14.20182867	      0.00000000	     34.32000000
      2.12000000	     -1.35806284	     -2.54622004	     -7.44482875	     -0.00585033	      0.00650944	     -0.00352018	    -41.20553839	      8.85694161	    -17.31452255	     -2.66924669	     54.51667540	    -11.52084745	      1.45482779	     87.93780215	    -14.14886295	      0.00000000	     34.32000000
      2.13000000	     -1.54474436	     -2.57838251	     -7.50326057	     -0.00578146	      0.00637355	     -0.00368930	    -41.23108125	      8.91291256	    -17.29373271	     -2.63805871	     54.61788745	    -11.55697034	      1.51407949	     88.07116089	    -14.14095081	      0.00000000	     34.32000000
      2.14000000	     -1.75718393	     -2.60813966	     -7.57270603	     -0.00558910	      0.00632598	     -0.00392446	    -41.26552999	      8.98157717	    -17.27955906	     -2.59961483	     54.73403978	    -11.60232847	      1.58123494	     88.21778981	    -14.13358777	      0.00000000	     34.32000000
      2.15000000	     -1.59030767	     -2.77283905	     -7.56330251	     -0.00552343	      0.00644547	     -0.00377356	    -41.27479825	      9.14550199	    -17.15159798	     -2.50071279	     54.98566890	    -11.66778817	      1.90935429	     88.76070754	    -14.10050558	      0.00000000	     34.32000000
      2.16000000	     -1.66156569	     -2.83540940	     -7.51006602	     -0.00569840	      0.00649010	     -0.00375334	    -41.30116849	      9.19292071	    -17.02046831	     -2.48100203	     55.22186452	    -11.71019488	      2.09134745	     89.02789538	    -14.08931400	      0.00000000	     34.32000000
      2.17000000	     -1.83075032	     -2.85784194	     -7.55914141	     -0.00580445	      0.00629953	     -0.00373241	    -41.32787710	      9.24429614	    -16.99753852	     -2.45279393	     55.32595049	    -11.74513089	      2.15271550	     89.14705679	    -14.08380924	      0.00000000	     34.32000000
